<svg width="104" height="34" viewBox="0 0 104 34" version="1.1" xmlns="http://www.w3.org/2000/svg" xmlns:xlink="http://www.w3.org/1999/xlink">
<title>My choice</title>
<desc>Created using Figma</desc>
<g id="Canvas" transform="translate(-1268 937)">
<clipPath id="clip-0" clip-rule="evenodd">
<path d="M 1268 -937L 1372 -937L 1372 -903L 1268 -903L 1268 -937Z" fill="#FFFFFF"/>
</clipPath>
<g id="My choice" clip-path="url(#clip-0)">
<g id="Group 22">
<g id="Group 3.1">
<g id="Evoke">
<use xlink:href="#path0_fill" transform="translate(1308.1 -930.809)" fill="#183E5C"/>
<use xlink:href="#path1_fill" transform="translate(1308.1 -930.809)" fill="#183E5C"/>
<use xlink:href="#path2_fill" transform="translate(1308.1 -930.809)" fill="#183E5C"/>
<use xlink:href="#path3_fill" transform="translate(1308.1 -930.809)" fill="#183E5C"/>
</g>
</g>
<g id="Group 21">
<g id="Ellipse">
<use xlink:href="#path4_fill" transform="matrix(1 -1.11022e-16 1.11022e-16 1 1268 -936.958)" fill="#6BD95B"/>
</g>
<g id="Ellipse">
<use xlink:href="#path5_fill" transform="matrix(0.707107 -0.707107 0.707107 0.707107 1272.96 -928.932)" fill="#33A971"/>
</g>
<g id="Ellipse">
<use xlink:href="#path6_fill" transform="matrix(0.0144473 -0.999896 0.999919 0.0127015 1276.88 -908.917)" fill="#33A971"/>
</g>
<g id="Ellipse">
<use xlink:href="#path7_fill" transform="matrix(-0.999896 0.0144475 0.0127016 0.999919 1296.04 -928.077)" fill="#33A971"/>
</g>
<g id="Group">
<g id="Ellipse">
<use xlink:href="#path8_fill" transform="matrix(0.0135767 -0.999908 0.999908 0.0135721 1274.45 -915.749)" fill="#33A971"/>
</g>
<g id="Ellipse">
<use xlink:href="#path8_fill" transform="matrix(-0.999908 0.0135768 0.0135723 0.999908 1289.17 -930.464)" fill="#33A971"/>
</g>
</g>
<g id="Rectangle">
<use xlink:href="#path9_fill" transform="matrix(0.707107 -0.707107 0.707107 0.707107 1277.34 -926.717)" fill="#33A971"/>
</g>
</g>
</g>
</g>
</g>
<defs>
<path id="path0_fill" d="M 2.1875 18.6348L 2.1875 2.31055L 0 1.92773L 0 0L 15.5723 0L 15.8867 5.1543L 13.4121 5.1543L 12.332 2.17383L 6.82227 1.85938L 6.82227 9.54297L 10.5137 9.48828L 11.1016 7.05469L 13.1387 7.05469L 13.1387 14.3418L 11.1152 14.3418L 10.5137 11.8535L 6.82227 11.7441L 6.82227 18.6211L 10.9648 18.9766L 10.9648 20.8086L 0.0546875 20.8086L 0.0546875 18.9766L 2.1875 18.6348Z"/>
<path id="path1_fill" d="M 17.3906 13.043C 17.3906 11.3568 17.7051 9.89844 18.334 8.66797C 18.972 7.4375 19.8652 6.49414 21.0137 5.83789C 22.1621 5.18164 23.4928 4.85352 25.0059 4.85352C 26.929 4.85352 28.401 5.34115 29.4219 6.31641C 30.4518 7.29167 30.9896 8.69076 31.0352 10.5137C 31.0352 11.7806 30.9668 12.7422 30.8301 13.3984L 21.998 13.3984C 22.1074 15.0755 22.5176 16.3197 23.2285 17.1309C 23.9486 17.9421 24.901 18.3477 26.0859 18.3477C 26.7695 18.3477 27.4805 18.2292 28.2188 17.9922C 28.9661 17.7552 29.5723 17.4863 30.0371 17.1855L 30.8301 18.8809C 30.5111 19.2181 30.0371 19.5599 29.4082 19.9062C 28.7884 20.2526 28.0729 20.5443 27.2617 20.7812C 26.4596 21.0091 25.653 21.123 24.8418 21.123C 23.1465 21.123 21.7428 20.7858 20.6309 20.1113C 19.5189 19.4368 18.6986 18.498 18.1699 17.2949C 17.6504 16.0827 17.3906 14.6654 17.3906 13.043ZM 26.6738 11.5254L 26.6875 10.377C 26.6875 9.23763 26.5234 8.35352 26.1953 7.72461C 25.8672 7.0957 25.3112 6.78125 24.5273 6.78125C 24.0078 6.78125 23.5658 6.91341 23.2012 7.17773C 22.8366 7.44206 22.5449 7.92513 22.3262 8.62695C 22.1074 9.31966 21.9844 10.2858 21.957 11.5254L 26.6738 11.5254Z"/>
<path id="path2_fill" d="M 34.918 18.7168L 34.918 8.20312L 33.2637 7.65625L 33.2637 5.49609L 37.8438 4.86719L 37.9121 4.86719L 38.7188 5.46875L 38.7188 6.26172L 38.6504 8.42188L 38.7188 8.42188C 38.8464 8.01172 39.1335 7.52409 39.5801 6.95898C 40.0358 6.39388 40.6146 5.90169 41.3164 5.48242C 42.0182 5.05404 42.7839 4.83984 43.6133 4.83984C 43.8411 4.83984 44.0462 4.86263 44.2285 4.9082C 44.4199 4.94466 44.5703 4.99479 44.6797 5.05859L 44.6797 9.7207C 44.3607 9.50195 44.0326 9.34245 43.6953 9.24219C 43.3672 9.14193 42.9661 9.0918 42.4922 9.0918C 41.8177 9.0918 41.1979 9.16471 40.6328 9.31055C 40.0677 9.45638 39.6393 9.63867 39.3477 9.85742L 39.3477 18.7031L 42.5742 18.9902L 42.5742 20.8086L 33.1133 20.8086L 33.1133 18.9766L 34.918 18.7168Z"/>
<path id="path3_fill" d="M 48.3027 18.7305L 48.3027 8.20312L 46.6211 7.65625L 46.6211 5.49609L 51.5566 4.86719L 51.625 4.86719L 52.377 5.46875L 52.377 6.4668L 52.3496 7.0957C 52.9967 6.49414 53.8216 5.98372 54.8242 5.56445C 55.8359 5.13607 56.8659 4.92188 57.9141 4.92188C 59.0443 4.92188 59.9329 5.12695 60.5801 5.53711C 61.2363 5.93815 61.7057 6.58529 61.9883 7.47852C 62.2799 8.37174 62.4258 9.58398 62.4258 11.1152L 62.4258 18.7031L 64.0664 18.9492L 64.0664 20.8086L 56.4648 20.8086L 56.4648 18.9766L 57.9004 18.7168L 57.9004 11.1152C 57.9004 10.2129 57.8411 9.51107 57.7227 9.00977C 57.6042 8.49935 57.39 8.12565 57.0801 7.88867C 56.7702 7.65169 56.3236 7.5332 55.7402 7.5332C 55.2116 7.5332 54.6829 7.64714 54.1543 7.875C 53.6348 8.09375 53.1882 8.35352 52.8145 8.6543L 52.8145 18.7168L 54.4004 18.9766L 54.4004 20.8086L 46.7168 20.8086L 46.7168 18.9766L 48.3027 18.7305Z"/>
<path id="path4_fill" d="M 34 17C 34 26.3888 26.3888 34 17 34C 7.61116 34 0 26.3888 0 17C 0 7.61116 7.61116 0 17 0C 26.3888 0 34 7.61116 34 17Z"/>
<path id="path5_fill" d="M 4.19208 5.63781C 4.19208 8.75148 2.09604 11.2756 2.09604 11.2756C 2.09604 11.2756 0 8.75148 0 5.63781C 0 2.52413 2.09604 0 2.09604 0C 2.09604 0 4.19208 2.52413 4.19208 5.63781Z"/>
<path id="path6_fill" d="M 5.88193 7.92389C 5.88193 12.3001 2.94096 15.8478 2.94096 15.8478C 2.94096 15.8478 0 12.3001 0 7.92389C 0 3.54765 2.94096 0 2.94096 0C 2.94096 0 5.88193 3.54765 5.88193 7.92389Z"/>
<path id="path7_fill" d="M 5.88193 7.92389C 5.88193 12.3001 2.94096 15.8478 2.94096 15.8478C 2.94096 15.8478 0 12.3001 0 7.92389C 0 3.54765 2.94096 0 2.94096 0C 2.94096 0 5.88193 3.54765 5.88193 7.92389Z"/>
<path id="path8_fill" d="M 4.46685 6.01783C 4.46685 9.34139 2.23342 12.0357 2.23342 12.0357C 2.23342 12.0357 0 9.34139 0 6.01783C 0 2.69428 2.23342 0 2.23342 0C 2.23342 0 4.46685 2.69428 4.46685 6.01783Z"/>
<path id="path9_fill" d="M 0 0L 1.17808 0L 1.17808 21.5588L 0 21.5588L 0 0Z"/>
</defs>
</svg>
