<?xml version="1.0" encoding="UTF-8"?>
<svg width="119px" height="24px" viewBox="0 0 119 24" version="1.1" xmlns="http://www.w3.org/2000/svg" xmlns:xlink="http://www.w3.org/1999/xlink">
    <!-- Generator: Sketch 48.2 (47327) - http://www.bohemiancoding.com/sketch -->
    <title>logo</title>
    <desc>Created with Sketch.</desc>
    <defs></defs>
    <g id="Page-1" stroke="none" stroke-width="1" fill="none" fill-rule="evenodd">
        <path d="M0,0 L12,0 L12,24 L12,24 C5.372583,24 8.11624501e-16,18.627417 0,12 L0,0 Z" id="Rectangle" fill="#6BD95B"></path>
        <path d="M12,0 L12,0 C18.627417,-1.21743675e-15 24,5.372583 24,12 L24,24 L12,24 L12,0 Z" id="Rectangle-Copy" fill="#33A971"></path>
        <g id="logo" fill="#183E5C">
            <path d="M37.5738297,21.3949219 L37.5738297,5.08437502 L35.4000015,4.68789065 L35.4000015,2.76015627 L50.5347672,2.76015627 L50.9175797,7.58632815 L48.689064,7.58632815 L47.7320328,4.8792969 L42.2085953,4.6058594 L42.2085953,11.8792969 L45.6812515,11.7972656 L46.1871109,9.54140627 L48.1832047,9.54140627 L48.1832047,16.5003906 L46.1871109,16.5003906 L45.7085953,14.0941406 L42.2085953,14.0121094 L42.2085953,21.5863281 L48.360939,21.2171875 L50.0699234,17.6898438 L52.407814,18.3597656 L51.6968765,23.56875 L35.4410172,23.56875 L35.4410172,21.7367188 L37.5738297,21.3949219 Z M52.5855484,9.8011719 L52.5855484,8.01015627 L60.5289078,8.01015627 L60.5289078,9.8011719 L58.6832047,10.1566406 L61.0347672,17.4300781 L61.8277359,20.2601563 L62.4839859,17.4847656 L64.7398453,10.1429688 L62.9898453,9.8011719 L62.9898453,8.01015627 L69.4156265,8.01015627 L69.4156265,9.8011719 L67.9937515,10.1429688 L62.907814,23.7875 L59.2847672,23.7875 L53.7339859,10.1566406 L52.5855484,9.8011719 Z M77.5777359,7.60000002 C79.1272228,7.60000002 80.4602173,7.92128587 81.5767593,8.56386721 C82.6933014,9.20644855 83.5455064,10.1315695 84.1334,11.3392578 C84.7212935,12.5469462 85.0152359,13.9802001 85.0152359,15.6390625 C85.0152359,17.4528737 84.6597707,18.9795511 83.9488297,20.2191406 C83.2378886,21.4587302 82.2899814,22.3792939 81.1050797,22.9808594 C79.9201779,23.5824249 78.6122483,23.8832031 77.1812515,23.8832031 C75.6317646,23.8832031 74.2987701,23.5619173 73.1822281,22.919336 C72.065686,22.2767546 71.213481,21.3516337 70.6255875,20.1439453 C70.0376939,18.936257 69.7437515,17.5030031 69.7437515,15.8441406 C69.7437515,14.0759026 70.1014953,12.5720114 70.8169937,11.3324219 C71.5324921,10.0928324 72.4849565,9.16087554 73.6744156,8.53652346 C74.8638747,7.91217138 76.1649684,7.60000002 77.5777359,7.60000002 Z M80.189064,15.9808594 C80.189064,13.8389216 79.9680376,12.2324924 79.5259781,11.1615235 C79.0839186,10.0905546 78.3615951,9.55507815 77.3589859,9.55507815 C76.4110645,9.55507815 75.7046914,10.0381462 75.2398453,11.0042969 C74.7749992,11.9704476 74.5425797,13.4697815 74.5425797,15.5023438 C74.5425797,17.6260523 74.7727206,19.2279243 75.2330093,20.3080078 C75.6932981,21.3880914 76.4247361,21.928125 77.4273453,21.928125 C78.3661521,21.928125 79.0611321,21.4473356 79.5123062,20.4857422 C79.9634803,19.5241489 80.189064,18.0225363 80.189064,15.9808594 Z M88.4878922,21.4769531 L88.4878922,3.30703127 L86.5601578,2.95156252 L86.5601578,1.2699219 L92.0289078,0.600000024 L92.0835953,0.600000024 L92.9039078,1.20156252 L92.9039078,14.2445313 L92.8355484,15.5707031 L97.9898453,10.115625 L95.8433609,9.76015627 L95.8433609,8.02382815 L103.499611,8.02382815 L103.499611,9.76015627 L101.148048,10.225 L98.0992203,13.1097656 L102.91172,21.4496094 L104.360939,21.7367188 L104.360939,23.56875 L96.704689,23.56875 L96.704689,21.7503906 L97.9625015,21.4632813 L95.0503922,15.8714844 L92.8082047,18.1410156 L92.8902359,19.6585938 L92.8902359,21.4632813 L94.5445328,21.7503906 L94.5445328,23.56875 L86.8882828,23.56875 L86.8882828,21.7367188 L88.4878922,21.4769531 Z M104.935158,15.803125 C104.935158,14.1169187 105.251886,12.6585999 105.885353,11.428125 C106.51882,10.1976501 107.409761,9.25430018 108.558205,8.5980469 C109.706648,7.94179362 111.037364,7.6136719 112.550392,7.6136719 C114.473579,7.6136719 115.947848,8.10129723 116.973244,9.07656252 C117.998639,10.0518278 118.534116,11.4509024 118.579689,13.2738281 C118.579689,14.5407616 118.51133,15.5023405 118.374611,16.1585938 L109.54258,16.1585938 C109.651955,17.8356855 110.064386,19.0798137 110.779884,19.8910156 C111.495383,20.7022176 112.445569,21.1078125 113.63047,21.1078125 C114.314067,21.1078125 115.027276,20.9893241 115.770119,20.7523438 C116.512961,20.5153634 117.116796,20.2464859 117.581642,19.9457031 L118.374611,21.6410156 C118.055599,21.9782569 117.583924,22.3200504 116.959572,22.6664063 C116.33522,23.0127622 115.619732,23.3021473 114.813087,23.5345703 C114.006443,23.7669934 113.197532,23.8832031 112.38633,23.8832031 C110.691009,23.8832031 109.287377,23.5459669 108.175392,22.8714844 C107.063407,22.1970019 106.245382,21.2559305 105.721291,20.0482422 C105.197199,18.8405539 104.935158,17.425529 104.935158,15.803125 Z M114.218361,14.2855469 L114.232033,13.1371094 C114.232033,11.9977808 114.067972,11.113675 113.739845,10.4847656 C113.411719,9.85585625 112.855735,9.54140627 112.071877,9.54140627 C111.552343,9.54140627 111.11029,9.67356641 110.745705,9.93789065 C110.381119,10.2022149 110.089456,10.6830044 109.870705,11.3802735 C109.651954,12.0775426 109.528908,13.0459574 109.501564,14.2855469 L114.218361,14.2855469 Z" id="Evoke"></path>
        </g>
    </g>
</svg>